<svg width="39" height="12" viewBox="0 0 39 12" fill="none" xmlns="http://www.w3.org/2000/svg">
<path d="M4.3253 0.149136V11.0582H2.67402V1.80042H2.6101L1.11125e-05 3.50496V1.92826L2.72196 0.149136H4.3253ZM11.0742 11.2393C10.2326 11.2358 9.51351 11.0138 8.91691 10.5735C8.32032 10.1332 7.864 9.49218 7.54795 8.65056C7.2319 7.80894 7.07387 6.79509 7.07387 5.60901C7.07387 4.42648 7.2319 3.41618 7.54795 2.57811C7.86755 1.74005 8.32565 1.10084 8.92224 0.6605C9.52238 0.220159 10.2397 -1.15037e-05 11.0742 -1.15037e-05C11.9087 -1.15037e-05 12.6243 0.221934 13.2209 0.665826C13.8175 1.10617 14.2738 1.74537 14.5899 2.58344C14.9095 3.41796 15.0693 4.42648 15.0693 5.60901C15.0693 6.79864 14.9112 7.81426 14.5952 8.65588C14.2791 9.49395 13.8228 10.1349 13.2262 10.5788C12.6296 11.0192 11.9123 11.2393 11.0742 11.2393ZM11.0742 9.81711C11.8129 9.81711 12.3899 9.45667 12.8054 8.73578C13.2244 8.0149 13.434 6.97265 13.434 5.60901C13.434 4.70347 13.3381 3.9382 13.1463 3.3132C12.9581 2.68465 12.6864 2.2088 12.3313 1.88564C11.9798 1.55894 11.5607 1.39558 11.0742 1.39558C10.3391 1.39558 9.76209 1.7578 9.34305 2.48223C8.92402 3.20666 8.71272 4.24892 8.70917 5.60901C8.70917 6.5181 8.80328 7.28692 8.99149 7.91547C9.18325 8.54047 9.45491 9.01455 9.80647 9.3377C10.158 9.6573 10.5806 9.81711 11.0742 9.81711ZM18.0296 9.70524C17.7384 9.70524 17.488 9.60226 17.2785 9.3963C17.069 9.18678 16.9642 8.93465 16.9642 8.6399C16.9642 8.34871 17.069 8.10013 17.2785 7.89417C17.488 7.68465 17.7384 7.57989 18.0296 7.57989C18.3208 7.57989 18.5711 7.68465 18.7806 7.89417C18.9902 8.10013 19.0949 8.34871 19.0949 8.6399C19.0949 8.83522 19.0452 9.01455 18.9458 9.1779C18.8499 9.3377 18.722 9.46554 18.5622 9.56142C18.4024 9.6573 18.2249 9.70524 18.0296 9.70524ZM18.0296 4.24005C17.7384 4.24005 17.488 4.13706 17.2785 3.9311C17.069 3.72158 16.9642 3.46945 16.9642 3.1747C16.9642 2.88351 17.069 2.63493 17.2785 2.42897C17.488 2.21945 17.7384 2.11469 18.0296 2.11469C18.3208 2.11469 18.5711 2.21945 18.7806 2.42897C18.9902 2.63493 19.0949 2.88351 19.0949 3.1747C19.0949 3.37002 19.0452 3.54935 18.9458 3.7127C18.8499 3.8725 18.722 4.00034 18.5622 4.09622C18.4024 4.19211 18.2249 4.24005 18.0296 4.24005ZM25.0049 11.2393C24.1633 11.2358 23.4442 11.0138 22.8476 10.5735C22.251 10.1332 21.7947 9.49218 21.4786 8.65056C21.1626 7.80894 21.0045 6.79509 21.0045 5.60901C21.0045 4.42648 21.1626 3.41618 21.4786 2.57811C21.7982 1.74005 22.2563 1.10084 22.8529 0.6605C23.453 0.220159 24.1704 -1.15037e-05 25.0049 -1.15037e-05C25.8394 -1.15037e-05 26.555 0.221934 27.1516 0.665826C27.7481 1.10617 28.2045 1.74537 28.5205 2.58344C28.8401 3.41796 28.9999 4.42648 28.9999 5.60901C28.9999 6.79864 28.8419 7.81426 28.5258 8.65588C28.2098 9.49395 27.7535 10.1349 27.1569 10.5788C26.5603 11.0192 25.843 11.2393 25.0049 11.2393ZM25.0049 9.81711C25.7435 9.81711 26.3206 9.45667 26.7361 8.73578C27.1551 8.0149 27.3646 6.97265 27.3646 5.60901C27.3646 4.70347 27.2687 3.9382 27.077 3.3132C26.8888 2.68465 26.6171 2.2088 26.262 1.88564C25.9104 1.55894 25.4914 1.39558 25.0049 1.39558C24.2698 1.39558 23.6927 1.7578 23.2737 2.48223C22.8547 3.20666 22.6434 4.24892 22.6398 5.60901C22.6398 6.5181 22.7339 7.28692 22.9222 7.91547C23.1139 8.54047 23.3856 9.01455 23.7371 9.3377C24.0887 9.6573 24.5113 9.81711 25.0049 9.81711ZM34.6875 11.2393C33.8459 11.2358 33.1268 11.0138 32.5302 10.5735C31.9336 10.1332 31.4773 9.49218 31.1612 8.65056C30.8452 7.80894 30.6872 6.79509 30.6872 5.60901C30.6872 4.42648 30.8452 3.41618 31.1612 2.57811C31.4808 1.74005 31.9389 1.10084 32.5355 0.6605C33.1357 0.220159 33.853 -1.15037e-05 34.6875 -1.15037e-05C35.522 -1.15037e-05 36.2376 0.221934 36.8342 0.665826C37.4308 1.10617 37.8871 1.74537 38.2031 2.58344C38.5227 3.41796 38.6825 4.42648 38.6825 5.60901C38.6825 6.79864 38.5245 7.81426 38.2085 8.65588C37.8924 9.49395 37.4361 10.1349 36.8395 10.5788C36.2429 11.0192 35.5256 11.2393 34.6875 11.2393ZM34.6875 9.81711C35.4261 9.81711 36.0032 9.45667 36.4187 8.73578C36.8377 8.0149 37.0472 6.97265 37.0472 5.60901C37.0472 4.70347 36.9514 3.9382 36.7596 3.3132C36.5714 2.68465 36.2997 2.2088 35.9446 1.88564C35.5931 1.55894 35.174 1.39558 34.6875 1.39558C33.9524 1.39558 33.3754 1.7578 32.9563 2.48223C32.5373 3.20666 32.326 4.24892 32.3225 5.60901C32.3225 6.5181 32.4166 7.28692 32.6048 7.91547C32.7965 8.54047 33.0682 9.01455 33.4198 9.3377C33.7713 9.6573 34.1939 9.81711 34.6875 9.81711Z" fill="white"/>
</svg>
